# xmcd CD database file
#
# Track frame offsets:
#	150
#	12905
#	23830
#	35757
#	47407
#	59135
#	71797
#	85090
#	97220
#	109477
#	124020
#	135905
#	149875
#	162247
#	176212
#	188497
#	201307
#	214950
#	226890
#	239977
#	251300
#	263880
#	275602
#	288232
#	301350
#	315307
#	328840
#
# Disc length: 4567 seconds
#
# Revision: 1
# Processed by: cddbd v1.5.2PL0 Copyright (c) Steve Scherf et al.
# Submitted via: CDex 1.51
#
DISCID=a311d51b
DTITLE=Roy Rogers - Home on the Range
DYEAR=2000
DGENRE=Country
TTITLE0=Don't Fence Me In
TTITLE1=My Chickashay Girl
TTITLE2=Home on the Range
TTITLE3=Yellow Rose of Texas
TTITLE4=San Fernando Valley
TTITLE5=Blue Shadows on the Trail
TTITLE6=Along the Navajo Trail
TTITLE7=I've Sold My Saddle for an Old Guitar
TTITLE8=One More Ride
TTITLE9=Tumbling Tumbleweeds
TTITLE10=Ride, Ranger, Ride
TTITLE11=There's a Ranch in the Rockies
TTITLE12=Headin' for Texas and Home
TTITLE13=There's a Round Up in the Sky
TTITLE14=Colorado Sunset
TTITLE15=Way Out There
TTITLE16=That Pioneer Mother of Mine
TTITLE17=Dust
TTITLE18=Born to the Saddle
TTITLE19=Ridin' Down the Trail
TTITLE20=When the Sun is Setting on the Prairie
TTITLE21=Hold that Critter Down
TTITLE22=I Hope I'm Not Dreaming Again
TTITLE23=When a Cowboy Sings a Song
TTITLE24=Listen to the Rhythm of the Range
TTITLE25=A Little White Cross on the Hill
TTITLE26=(There'll Never be Another) Pecos Bill
EXTD=YEAR: 2000
EXTT0=
EXTT1=
EXTT2=
EXTT3=
EXTT4=
EXTT5=
EXTT6=
EXTT7=
EXTT8=
EXTT9=
EXTT10=
EXTT11=
EXTT12=
EXTT13=
EXTT14=
EXTT15=
EXTT16=
EXTT17=
EXTT18=
EXTT19=
EXTT20=
EXTT21=
EXTT22=
EXTT23=
EXTT24=
EXTT25=
EXTT26=
PLAYORDER=
